<svg width="119" height="23" viewBox="0 0 119 23" fill="none" xmlns="http://www.w3.org/2000/svg">
<g filter="url(#filter0_dd_1_1016)">
<path opacity="0.9" d="M26.6626 16H20.8666V14.884C22.5546 13.604 23.6986 12.664 24.2986 12.064C24.8986 11.464 25.1986 10.888 25.1986 10.336C25.1986 9.944 25.0546 9.644 24.7666 9.436C24.4786 9.228 24.1346 9.124 23.7346 9.124C22.8626 9.124 22.1426 9.44 21.5746 10.072L20.7586 9.16C21.1026 8.744 21.5346 8.428 22.0546 8.212C22.5826 7.988 23.1386 7.876 23.7226 7.876C24.5386 7.876 25.2226 8.096 25.7746 8.536C26.3346 8.968 26.6146 9.568 26.6146 10.336C26.6146 11.032 26.3266 11.72 25.7506 12.4C25.1826 13.08 24.3066 13.868 23.1226 14.764H26.6626V16ZM33.7993 16H28.0033V14.884C29.6913 13.604 30.8353 12.664 31.4353 12.064C32.0353 11.464 32.3353 10.888 32.3353 10.336C32.3353 9.944 32.1913 9.644 31.9033 9.436C31.6153 9.228 31.2713 9.124 30.8713 9.124C29.9993 9.124 29.2793 9.44 28.7113 10.072L27.8953 9.16C28.2393 8.744 28.6713 8.428 29.1913 8.212C29.7193 7.988 30.2753 7.876 30.8593 7.876C31.6753 7.876 32.3593 8.096 32.9113 8.536C33.4713 8.968 33.7513 9.568 33.7513 10.336C33.7513 11.032 33.4633 11.72 32.8873 12.4C32.3193 13.08 31.4433 13.868 30.2593 14.764H33.7993V16ZM40.54 16H39.28V12.352C39.28 11.92 39.18 11.616 38.98 11.44C38.788 11.264 38.5 11.176 38.116 11.176C37.812 11.176 37.528 11.252 37.264 11.404C37 11.548 36.788 11.728 36.628 11.944V16H35.368V7.996H36.628V10.984C36.844 10.728 37.132 10.512 37.492 10.336C37.852 10.152 38.244 10.06 38.668 10.06C39.916 10.06 40.54 10.672 40.54 11.896V16ZM48.1621 16.144C47.6181 16.144 47.1341 16.024 46.7101 15.784C46.2941 15.544 45.9621 15.224 45.7141 14.824C45.4661 14.424 45.2781 13.984 45.1501 13.504C45.0221 13.024 44.9581 12.524 44.9581 12.004C44.9581 11.484 45.0181 10.984 45.1381 10.504C45.2661 10.024 45.4541 9.584 45.7021 9.184C45.9581 8.784 46.2941 8.468 46.7101 8.236C47.1341 7.996 47.6181 7.876 48.1621 7.876C48.8741 7.876 49.4781 8.084 49.9741 8.5C50.4701 8.916 50.8221 9.428 51.0301 10.036C51.2461 10.636 51.3541 11.292 51.3541 12.004C51.3541 12.708 51.2461 13.364 51.0301 13.972C50.8221 14.58 50.4701 15.096 49.9741 15.52C49.4781 15.936 48.8741 16.144 48.1621 16.144ZM46.8181 14.08C47.1061 14.624 47.5541 14.896 48.1621 14.896C48.7701 14.896 49.2141 14.624 49.4941 14.08C49.7821 13.536 49.9261 12.844 49.9261 12.004C49.9261 11.46 49.8701 10.984 49.7581 10.576C49.6541 10.16 49.4661 9.816 49.1941 9.544C48.9221 9.264 48.5781 9.124 48.1621 9.124C47.7461 9.124 47.3981 9.264 47.1181 9.544C46.8461 9.816 46.6541 10.16 46.5421 10.576C46.4381 10.984 46.3861 11.46 46.3861 12.004C46.3861 12.844 46.5301 13.536 46.8181 14.08ZM55.5684 16.144C55.0244 16.144 54.5404 16.024 54.1164 15.784C53.7004 15.544 53.3684 15.224 53.1204 14.824C52.8724 14.424 52.6844 13.984 52.5564 13.504C52.4284 13.024 52.3644 12.524 52.3644 12.004C52.3644 11.484 52.4244 10.984 52.5444 10.504C52.6724 10.024 52.8604 9.584 53.1084 9.184C53.3644 8.784 53.7004 8.468 54.1164 8.236C54.5404 7.996 55.0244 7.876 55.5684 7.876C56.2804 7.876 56.8844 8.084 57.3804 8.5C57.8764 8.916 58.2284 9.428 58.4364 10.036C58.6524 10.636 58.7604 11.292 58.7604 12.004C58.7604 12.708 58.6524 13.364 58.4364 13.972C58.2284 14.58 57.8764 15.096 57.3804 15.52C56.8844 15.936 56.2804 16.144 55.5684 16.144ZM54.2244 14.08C54.5124 14.624 54.9604 14.896 55.5684 14.896C56.1764 14.896 56.6204 14.624 56.9004 14.08C57.1884 13.536 57.3324 12.844 57.3324 12.004C57.3324 11.46 57.2764 10.984 57.1644 10.576C57.0604 10.16 56.8724 9.816 56.6004 9.544C56.3284 9.264 55.9844 9.124 55.5684 9.124C55.1524 9.124 54.8044 9.264 54.5244 9.544C54.2524 9.816 54.0604 10.16 53.9484 10.576C53.8444 10.984 53.7924 11.46 53.7924 12.004C53.7924 12.844 53.9364 13.536 54.2244 14.08ZM68.4586 16H67.1986V12.22C67.1986 11.524 66.8786 11.176 66.2386 11.176C65.9746 11.176 65.7186 11.252 65.4706 11.404C65.2226 11.556 65.0306 11.736 64.8946 11.944V16H63.6346V12.22C63.6346 11.524 63.3186 11.176 62.6866 11.176C62.4226 11.176 62.1666 11.252 61.9186 11.404C61.6786 11.556 61.4866 11.736 61.3426 11.944V16H60.0826V10.204H61.3426V10.984C61.5026 10.768 61.7586 10.56 62.1106 10.36C62.4626 10.16 62.8386 10.06 63.2386 10.06C63.6546 10.06 63.9986 10.156 64.2706 10.348C64.5426 10.532 64.7266 10.788 64.8226 11.116C64.9986 10.836 65.2666 10.592 65.6266 10.384C65.9946 10.168 66.3826 10.06 66.7906 10.06C67.3266 10.06 67.7386 10.208 68.0266 10.504C68.3146 10.8 68.4586 11.236 68.4586 11.812V16Z" fill="white"/>
<path opacity="0.9" d="M99.9499 16H98.5459V9.808L97.2379 11.176L96.4219 10.324L98.7259 7.996H99.9499V16ZM104.509 16.144C103.965 16.144 103.481 16.024 103.057 15.784C102.641 15.544 102.309 15.224 102.061 14.824C101.813 14.424 101.625 13.984 101.497 13.504C101.369 13.024 101.305 12.524 101.305 12.004C101.305 11.484 101.365 10.984 101.485 10.504C101.613 10.024 101.801 9.584 102.049 9.184C102.305 8.784 102.641 8.468 103.057 8.236C103.481 7.996 103.965 7.876 104.509 7.876C105.221 7.876 105.825 8.084 106.321 8.5C106.817 8.916 107.169 9.428 107.377 10.036C107.593 10.636 107.701 11.292 107.701 12.004C107.701 12.708 107.593 13.364 107.377 13.972C107.169 14.58 106.817 15.096 106.321 15.52C105.825 15.936 105.221 16.144 104.509 16.144ZM103.165 14.08C103.453 14.624 103.901 14.896 104.509 14.896C105.117 14.896 105.561 14.624 105.841 14.08C106.129 13.536 106.273 12.844 106.273 12.004C106.273 11.46 106.217 10.984 106.105 10.576C106.001 10.16 105.813 9.816 105.541 9.544C105.269 9.264 104.925 9.124 104.509 9.124C104.093 9.124 103.745 9.264 103.465 9.544C103.193 9.816 103.001 10.16 102.889 10.576C102.785 10.984 102.733 11.46 102.733 12.004C102.733 12.844 102.877 13.536 103.165 14.08ZM111.519 16.144C110.847 16.144 110.247 16.024 109.719 15.784C109.199 15.544 108.791 15.232 108.495 14.848L109.263 13.924C109.519 14.228 109.843 14.468 110.235 14.644C110.635 14.812 111.047 14.896 111.471 14.896C111.991 14.896 112.399 14.784 112.695 14.56C112.991 14.336 113.139 14.04 113.139 13.672C113.139 12.912 112.547 12.532 111.363 12.532C110.915 12.532 110.611 12.54 110.451 12.556V11.284C110.539 11.292 110.843 11.296 111.363 11.296C111.859 11.296 112.259 11.208 112.563 11.032C112.867 10.856 113.019 10.592 113.019 10.24C113.019 9.888 112.863 9.616 112.551 9.424C112.247 9.224 111.863 9.124 111.399 9.124C110.591 9.124 109.899 9.42 109.323 10.012L108.603 9.136C109.323 8.296 110.299 7.876 111.531 7.876C112.403 7.876 113.099 8.068 113.619 8.452C114.147 8.836 114.411 9.36 114.411 10.024C114.411 10.528 114.235 10.944 113.883 11.272C113.539 11.592 113.139 11.788 112.683 11.86C113.139 11.908 113.563 12.104 113.955 12.448C114.347 12.792 114.543 13.244 114.543 13.804C114.543 14.5 114.267 15.064 113.715 15.496C113.171 15.928 112.439 16.144 111.519 16.144Z" fill="white"/>
<path d="M87.3333 9.47368C88.8061 9.47368 90 8.24836 90 6.73684C90 5.22533 88.8061 4 87.3333 4C85.8606 4 84.6667 5.22533 84.6667 6.73684C84.6667 8.24836 85.8606 9.47368 87.3333 9.47368Z" stroke="white"/>
<path d="M82.6214 16.5463C82.4215 16.4741 82.2515 16.3325 82.1396 16.1452C82.0278 15.9579 81.981 15.7362 82.007 15.5173C82.1403 14.2329 82.7238 13.0452 83.6455 12.1823C84.5672 11.3194 85.7621 10.8421 87.0007 10.8421C88.2392 10.8421 89.4341 11.3194 90.3558 12.1823C91.2776 13.0452 91.8611 14.2329 91.9943 15.5173C92.0174 15.7334 91.9697 15.9513 91.859 16.1356C91.7482 16.3199 91.581 16.4597 91.3844 16.5323C90.7521 16.7568 89.4964 17 87.0029 17C84.5095 17 83.2538 16.7708 82.6214 16.5463Z" stroke="white"/>
<path d="M10.5 5.14286C9.21442 5.14286 7.95772 5.51989 6.8888 6.22627C5.81988 6.93265 4.98676 7.93665 4.49479 9.11132C4.00282 10.286 3.87409 11.5786 4.1249 12.8256C4.3757 14.0726 4.99477 15.2181 5.90381 16.1171C6.81285 17.0162 7.97104 17.6284 9.23191 17.8765C10.4928 18.1245 11.7997 17.9972 12.9874 17.5107C14.1752 17.0241 15.1903 16.2001 15.9046 15.143C16.6188 14.0858 17 12.8429 17 11.5714C16.998 9.86706 16.3126 8.23306 15.094 7.02789C13.8755 5.82273 12.2233 5.14481 10.5 5.14286ZM10.5 16.9286C9.42869 16.9286 8.38143 16.6144 7.49066 16.0257C6.5999 15.4371 5.90563 14.6004 5.49566 13.6215C5.08568 12.6426 4.97841 11.5655 5.18742 10.5263C5.39642 9.48712 5.91231 8.53257 6.66984 7.78336C7.42738 7.03415 8.39253 6.52393 9.44326 6.31722C10.494 6.11051 11.5831 6.2166 12.5729 6.62207C13.5626 7.02754 14.4086 7.71418 15.0038 8.59516C15.599 9.47614 15.9167 10.5119 15.9167 11.5714C15.9151 12.9917 15.3439 14.3534 14.3284 15.3577C13.3129 16.3621 11.9361 16.927 10.5 16.9286ZM13.5916 8.51384C13.6419 8.56359 13.6819 8.62267 13.7091 8.68771C13.7364 8.75274 13.7504 8.82245 13.7504 8.89286C13.7504 8.96326 13.7364 9.03297 13.7091 9.098C13.6819 9.16304 13.6419 9.22212 13.5916 9.27187L10.8832 11.9504C10.8329 12.0002 10.7732 12.0397 10.7074 12.0666C10.6416 12.0936 10.5712 12.1074 10.5 12.1074C10.4288 12.1074 10.3584 12.0936 10.2926 12.0666C10.2268 12.0397 10.1671 12.0002 10.1168 11.9504C10.0664 11.9007 10.0265 11.8416 9.99929 11.7766C9.97205 11.7115 9.95803 11.6418 9.95803 11.5714C9.95803 11.501 9.97205 11.4313 9.99929 11.3663C10.0265 11.3013 10.0664 11.2422 10.1168 11.1924L12.8251 8.51384C12.8754 8.46403 12.9352 8.42452 13.0009 8.39756C13.0667 8.3706 13.1372 8.35672 13.2083 8.35672C13.2795 8.35672 13.35 8.3706 13.4158 8.39756C13.4815 8.42452 13.5413 8.46403 13.5916 8.51384ZM8.33334 3.53571C8.33334 3.39363 8.3904 3.25737 8.49199 3.15691C8.59357 3.05644 8.73134 3 8.875 3H12.125C12.2687 3 12.4064 3.05644 12.508 3.15691C12.6096 3.25737 12.6667 3.39363 12.6667 3.53571C12.6667 3.67779 12.6096 3.81406 12.508 3.91452C12.4064 4.01499 12.2687 4.07143 12.125 4.07143H8.875C8.73134 4.07143 8.59357 4.01499 8.49199 3.91452C8.3904 3.81406 8.33334 3.67779 8.33334 3.53571Z" fill="white"/>
</g>
<defs>
<filter id="filter0_dd_1_1016" x="0" y="0" width="118.543" height="23" filterUnits="userSpaceOnUse" color-interpolation-filters="sRGB">
<feFlood flood-opacity="0" result="BackgroundImageFix"/>
<feColorMatrix in="SourceAlpha" type="matrix" values="0 0 0 0 0 0 0 0 0 0 0 0 0 0 0 0 0 0 127 0" result="hardAlpha"/>
<feOffset dy="1"/>
<feGaussianBlur stdDeviation="0.5"/>
<feComposite in2="hardAlpha" operator="out"/>
<feColorMatrix type="matrix" values="0 0 0 0 0 0 0 0 0 0 0 0 0 0 0 0 0 0 0.3 0"/>
<feBlend mode="normal" in2="BackgroundImageFix" result="effect1_dropShadow_1_1016"/>
<feColorMatrix in="SourceAlpha" type="matrix" values="0 0 0 0 0 0 0 0 0 0 0 0 0 0 0 0 0 0 127 0" result="hardAlpha"/>
<feOffset dy="1"/>
<feGaussianBlur stdDeviation="2"/>
<feComposite in2="hardAlpha" operator="out"/>
<feColorMatrix type="matrix" values="0 0 0 0 0 0 0 0 0 0 0 0 0 0 0 0 0 0 0.2 0"/>
<feBlend mode="normal" in2="effect1_dropShadow_1_1016" result="effect2_dropShadow_1_1016"/>
<feBlend mode="normal" in="SourceGraphic" in2="effect2_dropShadow_1_1016" result="shape"/>
</filter>
</defs>
</svg>
